# File created by Blade
# Date/Time:  Wed Jan 21 15:15:22 2015
# Frame Rate: 120.000 fps
#------------------------------------------------------
:FULLY-SPECIFIED
:DEGREES
1337
root 17.808203 35.215594 -23.392619 34.667769 -88.504906 -26.024319
Spine -20.949136 -0.114953 0.836272
Head 8.450245 -1.192419 0.703257
LeftShoulder -13.773489 -35.232535 22.305140
LeftArm 1.140860 4.091441 -8.246276
LeftForeArm 10.502323 -0.000000 -2.684494
LeftHand -7.437443 -0.000000 -5.371726
LeftHandThumb1 -26.253704 0.000000 33.147579
RightShoulder -12.525035 -4.156776 -10.857898
RightArm 9.572046 33.997250 12.784179
RightForeArm -36.781872 -0.000000 4.652856
RightHand -8.045895 0.000000 9.108723
RightHandThumb1 -24.326973 -0.000000 -32.862282
LeftUpLeg -0.324698 7.632488 4.492825
LeftLeg -5.670702 -0.000000 0.000000
LeftFoot -20.441961 24.971135 -13.453105
LeftToeBase 27.154600 -0.000000 -0.000000
RightUpLeg -0.153169 -7.130871 -4.105869
RightLeg -1.989914 -0.000000 0.000000
RightFoot -22.419070 -22.171051 17.585269
RightToeBase 23.702466 -0.000000 -0.000000
1338
root 17.803392 35.214806 -23.394420 35.150558 -88.513191 -26.493910
Spine -20.970954 -0.149732 0.875822
Head 8.448160 -1.146158 0.668829
LeftShoulder -13.777880 -35.248505 22.320894
LeftArm 1.104629 4.014099 -8.235256
LeftForeArm 10.523678 0.000000 -2.690539
LeftHand -7.426335 -0.000000 -5.372279
LeftHandThumb1 -26.253704 0.000000 33.147579
RightShoulder -12.498813 -4.112258 -10.875064
RightArm 9.549492 34.006250 12.749451
RightForeArm -36.826206 -0.000000 4.653735
RightHand -8.013115 -0.000000 9.141834
RightHandThumb1 -24.326973 -0.000000 -32.862282
LeftUpLeg -0.313327 7.633533 4.500568
LeftLeg -5.700073 -0.000000 0.000000
LeftFoot -20.441070 24.990326 -13.448409
LeftToeBase 27.145555 -0.000000 -0.000000
RightUpLeg -0.152261 -7.110512 -4.097688
RightLeg -2.008503 -0.000000 0.000000
RightFoot -22.423203 -22.169031 17.569629
RightToeBase 23.792417 -0.000000 -0.000000
1339
root 17.798591 35.214324 -23.396518 35.625933 -88.526011 -26.950505
Spine -21.001749 -0.186641 0.912452
Head 8.448370 -1.096208 0.630685
LeftShoulder -13.785090 -35.270996 22.327749
LeftArm 1.078355 3.980203 -8.205100
LeftForeArm 10.484844 -0.000000 -2.698076
LeftHand -7.421198 -0.000000 -5.387553
LeftHandThumb1 -26.253704 0.000000 33.147579
RightShoulder -12.480297 -4.103992 -10.888233
RightArm 9.553772 34.043412 12.739797
RightForeArm -36.855155 0.000000 4.667075
RightHand -7.991457 0.000000 9.228852
RightHandThumb1 -24.326973 -0.000000 -32.862282
LeftUpLeg -0.307471 7.653708 4.504236
LeftLeg -5.725640 -0.000000 0.000000
LeftFoot -20.443413 24.992397 -13.474156
LeftToeBase 27.143312 -0.000000 -0.000000
RightUpLeg -0.159631 -7.093165 -4.088786
RightLeg -2.021613 -0.000000 0.000000
RightFoot -22.430584 -22.191615 17.554741
RightToeBase 23.776262 -0.000000 -0.000000
1340
root 17.795222 35.213901 -23.398046 35.799219 -88.529143 -27.090582
Spine -21.047951 -0.225638 0.942425
Head 8.455246 -1.065821 0.589679
LeftShoulder -13.794489 -35.267744 22.349151
LeftArm 1.065914 3.915040 -8.210139
LeftForeArm 10.486304 -0.000000 -2.711250
LeftHand -7.426956 -0.000000 -5.398442
LeftHandThumb1 -26.253704 0.000000 33.147579
RightShoulder -12.447479 -4.052423 -10.896139
RightArm 9.496261 33.996536 12.672961
RightForeArm -36.832399 -0.000000 4.675056
RightHand -7.968448 -0.000000 9.227017
RightHandThumb1 -24.326973 -0.000000 -32.862282
LeftUpLeg -0.325376 7.666281 4.502409
LeftLeg -5.742683 -0.000000 0.000000
LeftFoot -20.432878 25.004867 -13.455050
LeftToeBase 27.158752 -0.000000 -0.000000
RightUpLeg -0.181877 -7.092704 -4.083574
RightLeg -2.033841 -0.000000 0.000000
RightFoot -22.424666 -22.189895 17.516271
RightToeBase 23.853804 -0.000000 -0.000000
1341
root 17.791238 35.213567 -23.399740 35.866313 -88.531187 -27.132073
Spine -21.085798 -0.274586 0.977046
Head 8.453450 -1.017534 0.548989
LeftShoulder -13.806221 -35.276734 22.368439
LeftArm 1.035872 3.881933 -8.210936
LeftForeArm 10.498990 -0.000000 -2.683167
LeftHand -7.524562 -0.000000 -5.400034
LeftHandThumb1 -26.253704 0.000000 33.147579
RightShoulder -12.423068 -4.045092 -10.914736
RightArm 9.492488 34.082789 12.669321
RightForeArm -36.874388 0.000000 4.665034
RightHand -7.945506 -0.000000 9.212592
RightHandThumb1 -24.326973 -0.000000 -32.862282
LeftUpLeg -0.336722 7.680217 4.498881
LeftLeg -5.761682 -0.000000 0.000000
LeftFoot -20.426293 25.012338 -13.476765
LeftToeBase 27.144246 -0.000000 -0.000000
RightUpLeg -0.191104 -7.093490 -4.077663
RightLeg -2.053904 -0.000000 0.000000
RightFoot -22.416356 -22.182244 17.558615
RightToeBase 23.820783 -0.000000 -0.000000
1342
root 17.788760 35.213719 -23.400962 35.890862 -88.531848 -27.117201
Spine -21.137032 -0.297077 1.003042
Head 8.455325 -0.993171 0.509839
LeftShoulder -13.786037 -35.263768 22.343283
LeftArm 1.041737 3.849331 -8.188143
LeftForeArm 10.416677 -0.000000 -2.747042
LeftHand -7.418472 -0.000000 -5.408537
LeftHandThumb1 -26.253704 0.000000 33.147579
RightShoulder -12.403366 -4.003393 -10.932252
RightArm 9.424544 34.059267 12.610574
RightForeArm -36.849094 -0.000000 4.677426
RightHand -8.000630 0.000000 9.205031
RightHandThumb1 -24.326973 -0.000000 -32.862282
LeftUpLeg -0.370882 7.712860 4.491363
LeftLeg -5.767549 -0.000000 0.000000
LeftFoot -20.427639 24.985406 -13.497339
LeftToeBase 27.114487 -0.000000 -0.000000
RightUpLeg -0.215614 -7.096709 -4.072214
RightLeg -2.075284 -0.000000 0.000000
RightFoot -22.406621 -22.173012 17.609173
RightToeBase 23.679048 -0.000000 -0.000000
1343
root 17.784860 35.213220 -23.402299 35.472564 -88.529993 -26.679537
Spine -21.162281 -0.334905 1.013533
Head 8.443845 -0.975925 0.483263
LeftShoulder -13.778659 -35.264190 22.344699
LeftArm 1.032792 3.841184 -8.184310
LeftForeArm 10.405246 0.000000 -2.745722
LeftHand -7.456039 -0.000000 -5.420787
LeftHandThumb1 -26.253704 0.000000 33.147579
RightShoulder -12.414491 -3.997653 -10.939867
RightArm 9.439176 34.074431 12.608775
RightForeArm -36.859506 -0.000000 4.660338
RightHand -7.937910 -0.000000 9.125343
RightHandThumb1 -24.326973 -0.000000 -32.862282
LeftUpLeg -0.381559 7.727477 4.481107
LeftLeg -5.776407 -0.000000 0.000000
LeftFoot -20.417392 24.977267 -13.497088
LeftToeBase 27.161265 -0.000000 -0.000000
RightUpLeg -0.215281 -7.110786 -4.077382
RightLeg -2.098540 -0.000000 0.000000
RightFoot -22.393280 -22.175063 17.567762
RightToeBase 23.697918 -0.000000 -0.000000
1344
root 17.783120 35.213139 -23.404140 35.309114 -88.515419 -26.467411
Spine -21.224576 -0.386164 1.044291
Head 8.450604 -0.925991 0.461258
LeftShoulder -13.786851 -35.241240 22.359077
LeftArm 1.018597 3.824119 -8.208304
LeftForeArm 10.417773 -0.000000 -2.702916
LeftHand -7.571268 -0.000000 -5.431372
LeftHandThumb1 -26.253704 0.000000 33.147579
RightShoulder -12.392266 -3.983854 -10.954900
RightArm 9.404434 34.078145 12.575885
RightForeArm -36.883450 -0.000000 4.657035
RightHand -7.895392 -0.000000 9.131481
RightHandThumb1 -24.326973 -0.000000 -32.862282
LeftUpLeg -0.434727 7.749597 4.478873
LeftLeg -5.770453 -0.000000 0.000000
LeftFoot -20.412385 24.957261 -13.487051
LeftToeBase 27.111120 -0.000000 -0.000000
RightUpLeg -0.245631 -7.129305 -4.065084
RightLeg -2.121009 -0.000000 0.000000
RightFoot -22.399784 -22.166112 17.609707
RightToeBase 23.732872 -0.000000 -0.000000
1345
root 17.779499 35.212479 -23.405635 35.012965 -88.507553 -26.158777
Spine -21.229750 -0.409265 1.060032
Head 8.410434 -0.907128 0.437808
LeftShoulder -13.777979 -35.228377 22.345862
LeftArm 1.022482 3.816608 -8.223638
LeftForeArm 10.384271 -0.000000 -2.691576
LeftHand -7.607072 -0.000000 -5.409718
LeftHandThumb1 -26.253704 0.000000 33.147579
RightShoulder -12.407204 -3.943995 -10.968226
RightArm 9.364897 34.041493 12.542566
RightForeArm -36.873019 0.000000 4.682695
RightHand -7.976724 -0.000000 9.238189
RightHandThumb1 -24.326973 -0.000000 -32.862282
LeftUpLeg -0.442857 7.775553 4.474590
LeftLeg -5.773075 -0.000000 0.000000
LeftFoot -20.411806 24.935322 -13.488438
LeftToeBase 27.170527 -0.000000 -0.000000
RightUpLeg -0.237941 -7.146383 -4.066333
RightLeg -2.143582 -0.000000 0.000000
RightFoot -22.390440 -22.155020 17.582405
RightToeBase 23.698064 -0.000000 -0.000000
1346
root 17.777609 35.212584 -23.406774 34.683373 -88.507139 -25.797685
Spine -21.263601 -0.449529 1.077686
Head 8.400333 -0.877105 0.408657
LeftShoulder -13.782219 -35.229498 22.345096
LeftArm 1.005681 3.812510 -8.226295
LeftForeArm 10.390666 -0.000000 -2.678828
LeftHand -7.621419 -0.000000 -5.417484
LeftHandThumb1 -26.253704 0.000000 33.147579
RightShoulder -12.395407 -3.944925 -10.965051
RightArm 9.343952 34.045548 12.501345
RightForeArm -36.928393 -0.000000 4.676018
RightHand -7.956021 -0.000000 9.161586
RightHandThumb1 -24.326973 -0.000000 -32.862282
LeftUpLeg -0.475297 7.793286 4.463105
LeftLeg -5.769861 -0.000000 0.000000
LeftFoot -20.386571 24.926196 -13.466444
LeftToeBase 27.130285 -0.000000 -0.000000
RightUpLeg -0.258400 -7.173123 -4.066750
RightLeg -2.155038 -0.000000 0.000000
RightFoot -22.382219 -22.150221 17.578926
RightToeBase 23.697939 -0.000000 -0.000000
